HIERARCHY
ROOT Hips
{
	OFFSET 0.000000 0.000000 0.000000
	CHANNELS 6 Xposition Yposition Zposition Zrotation Yrotation Xrotation 
	JOINT LHipJoint
	{
		OFFSET 0.000000 0.000000 0.000000
		CHANNELS 3 Zrotation Yrotation Xrotation
		JOINT LeftUpLeg
		{
			OFFSET 1.363060 -1.794630 0.839290
			CHANNELS 3 Zrotation Yrotation Xrotation
			JOINT LeftLeg
			{
				OFFSET 2.448110 -6.726130 0.000000
				CHANNELS 3 Zrotation Yrotation Xrotation
				JOINT LeftFoot
				{
					OFFSET 2.562200 -7.039590 0.000000
					CHANNELS 3 Zrotation Yrotation Xrotation
					JOINT LeftToeBase
					{
						OFFSET 0.157640 -0.433110 2.322550
						CHANNELS 3 Zrotation Yrotation Xrotation
						End Site
						{
							OFFSET 0.000000 0.000000 0.000000
						}
					}
				}
			}
		}
	}
	JOINT RHipJoint
	{
		OFFSET 0.000000 0.000000 0.000000
		CHANNELS 3 Zrotation Yrotation Xrotation
		JOINT RightUpLeg
		{
			OFFSET -1.305520 -1.794630 0.839290
			CHANNELS 3 Zrotation Yrotation Xrotation
			JOINT RightLeg
			{
				OFFSET -2.542530 -6.985550 0.000000
				CHANNELS 3 Zrotation Yrotation Xrotation
				JOINT RightFoot
				{
					OFFSET -2.568260 -7.056230 0.000000
					CHANNELS 3 Zrotation Yrotation Xrotation
					JOINT RightToeBase
					{
						OFFSET -0.164730 -0.452590 2.363150
						CHANNELS 3 Zrotation Yrotation Xrotation
						End Site
						{
							OFFSET 0.000000 0.000000 0.000000
						}
					}
				}
			}
		}
	}
}
MOTION
Frames: 16
Frame Time: 0.008333
2.452157 15.846453 -1.369481 65.960615 -77.829834 -18.823239 -7.357405 0.501870 8.208210 -3.263057 -30.648716 -129.565241 -10.840268 -0.692897 7.138952 -2.041603 -3.973660 9.894588 0.486900 -0.000000 -50.216800 7.969331 3.993908 -4.893397 10.616848 -5.920927 -79.017030 2.445533 -6.139032 54.753223 -2.465171 -4.847751 -21.686247 1.209300 0.000000 -48.028600
2.462907 15.819719 -1.377685 66.004162 -77.616994 -18.664076 -7.294638 0.327959 8.223413 -2.385018 -29.850372 -129.140836 -10.430424 -0.641650 7.261215 -2.073828 -3.975968 10.884487 0.427900 0.000000 -50.028500 7.969258 4.143192 -4.899488 10.149684 -5.790483 -79.404118 2.326664 -6.169505 55.306434 -2.580664 -5.299781 -21.968952 1.306700 -0.000000 -47.552200
2.471572 15.797214 -1.385730 66.163934 -77.422796 -18.661589 -7.227722 0.175086 8.213436 -1.772880 -29.148786 -128.397139 -10.030280 -0.610700 7.273157 -2.093793 -3.922066 12.002522 0.383001 -0.000000 -49.471300 7.974049 4.280120 -4.884130 9.674284 -5.648062 -79.711935 2.210755 -6.183176 55.776227 -2.693572 -5.747279 -22.215829 1.401300 0.000000 -47.110800
2.477883 15.779062 -1.393143 66.441322 -77.260416 -18.805233 -7.158422 0.045021 8.183591 -1.409220 -28.541575 -127.358674 -9.650558 -0.614227 7.145636 -2.082771 -3.750888 13.138438 0.386200 0.000000 -48.719600 7.983179 4.399243 -4.842939 9.203533 -5.476529 -79.952053 2.099794 -6.179339 56.155690 -2.802792 -6.182332 -22.426409 1.491300 0.000000 -46.651300
2.481575 15.765295 -1.398828 66.758568 -77.142044 -19.017960 -7.092858 -0.058912 8.134545 -1.292509 -28.041418 -126.081697 -9.300357 -0.637007 6.952826 -2.036409 -3.452170 14.189941 0.452500 0.000000 -47.986100 7.994243 4.489321 -4.777390 8.779977 -5.280127 -80.132598 2.000194 -6.161435 56.437861 -2.902234 -6.579364 -22.588882 1.570200 -0.000000 -46.250400
2.482379 15.755761 -1.402072 67.081649 -77.076438 -19.258916 -7.035596 -0.136724 8.071044 -1.392376 -27.632522 -124.622681 -8.978634 -0.667372 6.756847 -1.950942 -3.008533 15.085326 0.597901 0.000000 -47.429000 8.006155 4.544903 -4.688390 8.428042 -5.059616 -80.264396 1.916004 -6.132049 56.620491 -2.988198 -6.921009 -22.700322 1.634300 0.000000 -45.918900
2.480412 15.750370 -1.402622 67.410694 -77.068944 -19.527251 -6.989608 -0.188701 7.993447 -1.681676 -27.289585 -123.031172 -8.680229 -0.689914 6.632247 -1.827396 -2.423710 15.776409 0.825200 0.000000 -47.126700 8.018985 4.565760 -4.578068 8.156653 -4.816974 -80.351017 1.849159 -6.092884 56.705066 -3.058167 -7.195214 -22.763063 1.681200 0.000000 -45.644899
2.475713 15.748952 -1.400172 67.727721 -77.121700 -19.806907 -6.957653 -0.216207 7.901709 -2.129118 -26.986999 -121.357558 -8.397640 -0.686113 6.664166 -1.672128 -1.728321 16.241009 1.119600 -0.000000 -47.075200 8.032469 4.551521 -4.450681 7.978718 -4.562018 -80.393828 1.802281 -6.046802 56.694266 -3.108939 -7.388601 -22.777146 1.708400 0.000000 -45.451500
2.468346 15.751203 -1.394430 68.001987 -77.233975 -20.066598 -6.941117 -0.223871 7.799428 -2.677777 -26.691891 -119.648233 -8.118265 -0.644344 6.910240 -1.490856 -0.951295 16.489661 1.462400 0.000001 -47.219600 8.045948 4.502756 -4.310892 7.904896 -4.304750 -80.396488 1.777555 -5.996852 56.592948 -3.138446 -7.492356 -22.745097 1.715000 -0.000000 -45.349200
2.458412 15.756796 -1.385599 68.237422 -77.402062 -20.310395 -6.939307 -0.216245 7.686416 -3.274226 -26.371858 -117.938127 -7.830145 -0.556149 7.413414 -1.290612 -0.130513 16.548655 1.828700 0.000000 -47.461400 8.059963 4.424051 -4.162850 7.930035 -4.051810 -80.355827 1.774469 -5.944333 56.408580 -3.147013 -7.508271 -22.673209 1.702299 -0.000000 -45.328300
2.446512 15.765598 -1.374179 68.449049 -77.620341 -20.563507 -6.949566 -0.197912 7.555910 -3.884432 -26.001866 -116.244365 -7.523795 -0.413911 8.211267 -1.081028 0.683293 16.452774 2.186399 0.000000 -47.683900 8.075377 4.322223 -4.011192 8.041321 -3.810055 -80.261909 1.791018 -5.889619 56.149644 -3.135781 -7.442890 -22.567808 1.673001 -0.000000 -45.375100
2.432731 15.777197 -1.360555 68.637983 -77.880832 -20.825356 -6.968831 -0.175403 7.407228 -4.453161 -25.563566 -114.585854 -7.189230 -0.219245 9.308627 -0.869027 1.458308 16.246801 2.514900 0.000000 -47.787700 8.092613 4.202964 -3.858456 8.224707 -3.583132 -80.112072 1.824533 -5.832920 55.825740 -3.107906 -7.310339 -22.435580 1.630600 0.000000 -45.481700
2.417535 15.791411 -1.345252 68.816334 -78.173216 -21.112556 -6.992786 -0.154179 7.235047 -4.951276 -25.052384 -112.967513 -6.821461 0.024652 10.706018 -0.662600 2.160022 15.966847 2.794100 -0.000000 -47.691200 8.112342 4.073230 -3.706685 8.459946 -3.374257 -79.901030 1.871086 -5.773615 55.446132 -3.067242 -7.128500 -22.281684 1.579000 -0.000000 -45.639400
2.400999 15.807818 -1.328684 68.981267 -78.485916 -21.415192 -7.017438 -0.139711 7.041958 -5.339653 -24.476182 -111.397799 -6.417518 0.305756 12.373296 -0.465379 2.780190 15.646249 3.019599 0.000000 -47.349900 8.134834 3.938260 -3.554394 8.727056 -3.182121 -79.636253 1.926659 -5.711058 55.019513 -3.019259 -6.919737 -22.112692 1.522500 0.000000 -45.815301
2.383432 15.826197 -1.311418 69.154377 -78.805903 -21.753919 -7.038522 -0.134629 6.823811 -5.624140 -23.855187 -109.871725 -5.981591 0.615486 14.296287 -0.282017 3.302259 15.289841 3.183100 -0.000001 -46.754800 8.160805 3.804307 -3.400093 8.999233 -3.005455 -79.319525 1.986050 -5.643828 54.554300 -2.969251 -6.707009 -21.932670 1.465000 0.000000 -45.999800
2.364963 15.846321 -1.293811 69.346174 -79.121012 -22.132653 -7.052783 -0.140749 6.582035 -5.812774 -23.215773 -108.388012 -5.520113 0.941332 16.445179 -0.112747 3.731430 14.892923 3.287500 0.000000 -45.939300 8.190542 3.675740 -3.240233 9.253039 -2.839656 -78.961125 2.044549 -5.570702 54.057276 -2.922815 -6.513183 -21.745338 1.409700 0.000000 -46.177000
